<svg xmlns="http://www.w3.org/2000/svg" width="128" height="128" viewBox="0 0 128 128"><path fill="currentColor" fill-rule="evenodd" d="M41.471 113.827a7.037 7.037 0 1 1-5.028.128V97.593c0-17.258 15.415-15.415 15.415-30.326V53.025h-4.86c-.006.894-.031 5.15 0 7.54.135 9.943-7.97 14.56-15.715 18.973-6.988 3.981-13.684 7.796-13.773 15.206-.048 4.038-.146 11.312-.164 12.677a7.04 7.04 0 0 1-2.684 13.545 7.037 7.037 0 0 1-2.345-13.674c.005-1.626.021-8.463 0-12.38-.057-9.96 8.164-14.784 15.963-19.36 6.966-4.088 13.596-7.979 13.692-15.155.044-3.232.011-6.594.002-7.372H28.401c-3.701 0-6.702-3-6.702-6.702V7.452c0-3.701 3-6.702 6.702-6.702h71.71c3.702 0 6.702 3 6.702 6.702v38.871c0 3.701-3 6.702-6.702 6.702H86.037v6.534c0 7.948 6.583 11.713 13.546 15.696 7.863 4.498 16.212 9.274 16.11 20.662-.032 3.698-.007 10.01 0 11.436a7.04 7.04 0 0 1-2.513 13.613 7.037 7.037 0 0 1-2.506-13.615c.033-1.306.16-6.622.16-9.256 0-21.613-29.766-16.316-29.823-38.536a2400.81 2400.81 0 0 1 0-6.534h-4.859v14.744c0 13.74 15.415 13.069 15.415 29.824v16.127a7.04 7.04 0 0 1-2.514 13.612 7.037 7.037 0 0 1-2.513-13.612V97.258c0-12.399-15.414-13.74-15.414-28.986V53.025h-4.524v54.267a7.037 7.037 0 1 1-4.859.062v-54.33h-4.86a5900.56 5900.56 0 0 0 .001 13.572c.02 10.616-4.498 14.649-8.648 18.352-3.54 3.16-6.811 6.08-6.766 12.645.034 4.959.008 13.98.001 16.234Zm6.7-88.28a2.513 2.513 0 0 0 2.514 2.513h16.252a2.513 2.513 0 0 0 2.513-2.513V11.138a2.513 2.513 0 0 0-2.513-2.513H50.685a2.513 2.513 0 0 0-2.513 2.513v14.41Z" /></svg>
